<?xml version="1.0" standalone="no"?>
<!DOCTYPE svg PUBLIC "-//W3C//DTD SVG 20010904//EN"
 "http://www.w3.org/TR/2001/REC-SVG-20010904/DTD/svg10.dtd">
<svg version="1.0" xmlns="http://www.w3.org/2000/svg"
 width="1024.000000pt" height="1024.000000pt" viewBox="0 0 1024.000000 1024.000000"
 preserveAspectRatio="xMidYMid meet">
<metadata>
Created by potrace 1.15, written by Peter Selinger 2001-2017
</metadata>
<g transform="translate(0.000000,1024.000000) scale(0.100000,-0.100000)"
fill="#000000" stroke="none">
<path d="M5899 9873 c-117 -131 -219 -246 -227 -255 -19 -23 -21 -21 163 -184
170 -150 396 -377 570 -572 65 -73 121 -131 126 -130 13 5 509 450 509 457 0
8 -304 347 -394 440 -79 81 -516 481 -527 481 -4 0 -103 -107 -220 -237z"/>
<path d="M4465 9973 c-170 -8 -313 -18 -316 -21 -7 -8 19 -597 51 -1147 11
-198 21 -382 23 -410 l2 -50 -120 -12 c-66 -7 -408 -39 -760 -73 -352 -34
-643 -65 -646 -68 -8 -9 54 -669 64 -678 4 -4 345 25 759 64 413 40 753 70
755 69 1 -2 14 -131 28 -288 14 -157 36 -388 49 -514 13 -127 23 -231 21 -233
-2 -3 -762 -84 -1190 -128 -148 -15 -274 -31 -279 -35 -9 -8 53 -661 64 -679
3 -4 338 27 745 70 407 43 741 77 743 75 2 -1 25 -153 52 -336 27 -184 62
-417 79 -519 16 -101 28 -186 27 -188 -3 -3 -1389 -177 -1891 -237 -126 -16
-233 -31 -237 -34 -8 -7 71 -672 81 -682 3 -4 283 28 621 71 338 42 825 103
1082 136 257 32 469 56 472 54 2 -3 25 -100 51 -215 96 -439 236 -948 369
-1349 81 -246 81 -247 61 -265 -28 -26 -352 -241 -530 -351 -712 -442 -1450
-800 -2290 -1110 -93 -35 -174 -67 -179 -71 -5 -5 1 -35 14 -71 51 -142 213
-564 220 -571 7 -8 308 102 630 231 785 314 1570 725 2254 1181 88 58 166 110
173 114 9 5 28 -24 69 -105 157 -314 378 -632 579 -833 250 -250 432 -368 684
-445 137 -41 232 -54 369 -47 181 8 315 52 469 152 307 200 522 594 613 1123
22 126 67 598 58 607 -5 5 -680 67 -684 62 -2 -1 -12 -106 -24 -232 -45 -498
-120 -746 -278 -916 -92 -100 -172 -126 -292 -95 -140 36 -265 122 -437 299
-159 165 -295 368 -463 692 l-83 160 39 32 c21 17 113 92 204 166 351 286 649
558 1037 949 l213 213 -143 140 c-78 78 -190 187 -249 244 l-106 103 -264
-264 c-293 -294 -533 -515 -807 -745 l-184 -155 -19 49 c-86 226 -235 771
-336 1235 l-39 178 31 5 c17 3 519 66 1116 141 597 74 1197 149 1333 166 l249
32 -5 30 c-2 17 -22 172 -43 344 -28 224 -42 312 -51 312 -7 0 -354 -43 -770
-95 -1578 -197 -1985 -246 -1989 -242 -11 11 -166 1015 -159 1025 2 2 1107
120 2180 233 110 11 204 24 208 28 8 8 -59 670 -69 680 -2 3 -534 -50 -1182
-117 -647 -68 -1187 -123 -1198 -122 -25 0 -23 -14 -59 350 -49 504 -62 672
-50 675 5 2 323 33 705 69 1162 110 2054 196 2058 200 4 4 -59 679 -64 685 -2
2 -106 -6 -231 -18 -364 -35 -1560 -148 -2023 -191 -234 -22 -443 -42 -466
-45 l-41 -6 -7 83 c-18 242 -76 1335 -76 1451 0 47 0 47 -32 46 -18 -1 -172
-8 -343 -16z"/>
</g>
</svg>
