<?xml version="1.0" standalone="no"?>
<!DOCTYPE svg PUBLIC "-//W3C//DTD SVG 20010904//EN"
 "http://www.w3.org/TR/2001/REC-SVG-20010904/DTD/svg10.dtd">
<svg version="1.0" xmlns="http://www.w3.org/2000/svg"
 width="1024.000000pt" height="1024.000000pt" viewBox="0 0 1024.000000 1024.000000"
 preserveAspectRatio="xMidYMid meet">
<metadata>
Created by potrace 1.15, written by Peter Selinger 2001-2017
</metadata>
<g transform="translate(0.000000,1024.000000) scale(0.100000,-0.100000)"
fill="#000000" stroke="none">
<path d="M1290 4915 l0 -4645 350 0 350 0 0 305 0 305 3130 0 3130 0 0 -305 0
-305 350 0 350 0 0 2290 0 2290 -3480 0 -3480 0 0 575 0 575 3275 0 3275 0 0
1780 0 1780 -3625 0 -3625 0 0 -4645z m6550 2870 l0 -1085 -2925 0 -2925 0 0
1085 0 1085 2925 0 2925 0 0 -1085z m410 -4915 l0 -1290 -3130 0 -3130 0 0
1290 0 1290 3130 0 3130 0 0 -1290z"/>
</g>
</svg>
