<?xml version="1.0" standalone="no"?>
<!DOCTYPE svg PUBLIC "-//W3C//DTD SVG 20010904//EN"
 "http://www.w3.org/TR/2001/REC-SVG-20010904/DTD/svg10.dtd">
<svg version="1.0" xmlns="http://www.w3.org/2000/svg"
 width="1024.000000pt" height="1024.000000pt" viewBox="0 0 1024.000000 1024.000000"
 preserveAspectRatio="xMidYMid meet">
<metadata>
Created by potrace 1.15, written by Peter Selinger 2001-2017
</metadata>
<g transform="translate(0.000000,1024.000000) scale(0.100000,-0.100000)"
fill="#000000" stroke="none">
<path d="M3237 9998 c-9 -29 -118 -406 -242 -838 -225 -782 -408 -1417 -864
-3000 -132 -459 -256 -887 -275 -950 -18 -63 -31 -118 -27 -121 10 -9 614
-182 640 -183 24 -1 28 9 107 286 45 158 90 313 99 343 l16 55 2354 0 c2088 0
2355 -2 2355 -15 0 -48 -80 -876 -121 -1245 -211 -1933 -464 -2872 -856 -3172
-248 -192 -571 -227 -1513 -168 -303 20 -922 67 -1197 92 -73 6 -135 10 -137
7 -2 -2 -17 -158 -33 -346 l-28 -342 50 -6 c209 -22 1232 -96 1610 -116 272
-14 716 -6 874 16 683 95 1077 422 1370 1134 279 677 489 1929 665 3966 32
366 76 881 76 889 0 3 -1185 6 -2633 6 l-2634 0 53 183 c29 100 125 434 214
742 88 308 165 575 171 593 l11 32 2699 0 2699 0 0 350 0 350 -2601 0 c-2473
0 -2601 1 -2594 18 15 39 377 1303 374 1306 -7 5 -614 179 -641 183 -24 5 -27
1 -41 -49z"/>
</g>
</svg>
