<?xml version="1.0" standalone="no"?>
<!DOCTYPE svg PUBLIC "-//W3C//DTD SVG 20010904//EN"
 "http://www.w3.org/TR/2001/REC-SVG-20010904/DTD/svg10.dtd">
<svg version="1.0" xmlns="http://www.w3.org/2000/svg"
 width="1024.000000pt" height="1024.000000pt" viewBox="0 0 1024.000000 1024.000000"
 preserveAspectRatio="xMidYMid meet">
<metadata>
Created by potrace 1.15, written by Peter Selinger 2001-2017
</metadata>
<g transform="translate(0.000000,1024.000000) scale(0.100000,-0.100000)"
fill="#000000" stroke="none">
<path d="M2737 8333 c-4 -3 -7 -465 -7 -1025 l0 -1018 -1020 0 -1020 0 0 -350
0 -350 1020 0 1020 0 0 -1695 0 -1695 -1227 -2 -1228 -3 -3 -348 -2 -347 4852
2 4853 3 0 345 0 345 -1222 3 -1223 2 0 1695 0 1695 1020 0 1020 0 0 350 0
350 -1020 0 -1020 0 0 1025 0 1025 -350 0 -350 0 0 -1025 0 -1025 -1700 0
-1700 0 0 1025 0 1025 -343 0 c-189 0 -347 -3 -350 -7z m4093 -4438 l0 -1695
-1700 0 -1700 0 0 1695 0 1695 1700 0 1700 0 0 -1695z"/>
</g>
</svg>
