<?xml version="1.0" standalone="no"?>
<!DOCTYPE svg PUBLIC "-//W3C//DTD SVG 20010904//EN"
 "http://www.w3.org/TR/2001/REC-SVG-20010904/DTD/svg10.dtd">
<svg version="1.0" xmlns="http://www.w3.org/2000/svg"
 width="1024.000000pt" height="1024.000000pt" viewBox="0 0 1024.000000 1024.000000"
 preserveAspectRatio="xMidYMid meet">
<metadata>
Created by potrace 1.15, written by Peter Selinger 2001-2017
</metadata>
<g transform="translate(0.000000,1024.000000) scale(0.100000,-0.100000)"
fill="#000000" stroke="none">
<path d="M3748 6598 l-3 -1743 -672 -3 -673 -2 0 1335 0 1335 -350 0 -350 0 0
-1680 0 -1680 1025 0 1025 0 0 -780 0 -780 -1535 0 -1535 0 0 -350 0 -350
4440 0 4440 0 0 350 0 350 -1535 0 -1535 0 0 780 0 780 1025 0 1025 0 0 1680
0 1680 -347 -2 -348 -3 -3 -1332 -2 -1333 -675 0 -675 0 0 1745 0 1745 -345 0
-345 0 -2 -2867 -3 -2868 -677 -3 -678 -2 0 2870 0 2870 -345 0 -345 0 -2
-1742z"/>
</g>
</svg>
