<?xml version="1.0" standalone="no"?>
<!DOCTYPE svg PUBLIC "-//W3C//DTD SVG 20010904//EN"
 "http://www.w3.org/TR/2001/REC-SVG-20010904/DTD/svg10.dtd">
<svg version="1.0" xmlns="http://www.w3.org/2000/svg"
 width="1024.000000pt" height="1024.000000pt" viewBox="0 0 1024.000000 1024.000000"
 preserveAspectRatio="xMidYMid meet">
<metadata>
Created by potrace 1.15, written by Peter Selinger 2001-2017
</metadata>
<g transform="translate(0.000000,1024.000000) scale(0.100000,-0.100000)"
fill="#000000" stroke="none">
<path d="M680 9215 l0 -345 4095 0 4095 0 0 -3552 c0 -2291 -4 -3587 -10
-3648 -38 -361 -177 -559 -453 -650 -165 -54 -155 -53 -1109 -57 l-888 -4 0
-344 0 -345 870 0 c544 0 907 4 968 11 386 42 684 173 909 401 224 228 351
518 392 900 8 67 11 1335 11 4038 l0 3940 -4440 0 -4440 0 0 -345z"/>
</g>
</svg>
