<?xml version="1.0" standalone="no"?>
<!DOCTYPE svg PUBLIC "-//W3C//DTD SVG 20010904//EN"
 "http://www.w3.org/TR/2001/REC-SVG-20010904/DTD/svg10.dtd">
<svg version="1.0" xmlns="http://www.w3.org/2000/svg"
 width="1024.000000pt" height="1024.000000pt" viewBox="0 0 1024.000000 1024.000000"
 preserveAspectRatio="xMidYMid meet">
<metadata>
Created by potrace 1.15, written by Peter Selinger 2001-2017
</metadata>
<g transform="translate(0.000000,1024.000000) scale(0.100000,-0.100000)"
fill="#000000" stroke="none">
<path d="M3540 9510 l0 -460 -820 0 -820 0 0 -345 0 -345 820 0 820 0 0 -420
0 -420 -612 -2 -613 -3 -3 -1167 -2 -1168 1226 0 1227 0 -7 -247 c-3 -137 -9
-303 -12 -371 l-7 -122 -1303 0 -1304 0 0 -345 0 -345 1280 0 1280 0 0 -25 c0
-74 -53 -431 -91 -612 l-22 -103 -1538 0 -1539 0 0 -350 0 -350 1390 -2 1390
-3 -69 -85 c-256 -319 -709 -589 -1541 -917 -245 -96 -999 -383 -1169 -444
-51 -19 -95 -39 -98 -45 -2 -7 43 -137 102 -290 58 -154 111 -292 117 -309 6
-16 14 -34 18 -38 8 -9 831 298 1275 476 619 248 973 421 1279 626 321 215
601 511 766 806 18 33 35 62 36 64 2 2 81 -75 176 -171 211 -214 432 -394 718
-585 159 -107 501 -308 685 -404 276 -144 804 -377 1125 -497 208 -78 891
-312 909 -312 9 0 221 622 221 647 0 7 -104 45 -237 88 -395 128 -1033 374
-1335 516 -187 88 -437 216 -618 316 -220 123 -631 404 -760 521 l-45 41 1453
1 1452 0 0 350 0 350 -1725 0 c-949 0 -1725 2 -1725 5 0 3 11 65 24 138 21
113 43 275 74 532 l7 60 1378 3 1377 2 0 345 0 345 -1356 0 -1357 0 7 178 c3
97 9 264 12 369 l7 193 1231 2 1231 3 3 1168 2 1167 -615 0 -615 0 0 420 0
420 1020 0 1020 0 0 345 0 345 -1020 0 -1020 0 0 460 0 460 -350 0 -350 0 0
-460 0 -460 -880 0 -880 0 0 460 0 460 -350 0 -350 0 0 -460z m2460 -1570 l0
-420 -880 0 -880 0 0 420 0 420 880 0 880 0 0 -420z m-1230 -1590 l0 -470
-880 0 -880 0 0 470 0 470 880 0 880 0 0 -470z m2460 0 l0 -470 -880 0 -880 0
0 470 0 470 880 0 880 0 0 -470z"/>
</g>
</svg>
