<?xml version="1.0" standalone="no"?>
<!DOCTYPE svg PUBLIC "-//W3C//DTD SVG 20010904//EN"
 "http://www.w3.org/TR/2001/REC-SVG-20010904/DTD/svg10.dtd">
<svg version="1.0" xmlns="http://www.w3.org/2000/svg"
 width="1024.000000pt" height="1024.000000pt" viewBox="0 0 1024.000000 1024.000000"
 preserveAspectRatio="xMidYMid meet">
<metadata>
Created by potrace 1.15, written by Peter Selinger 2001-2017
</metadata>
<g transform="translate(0.000000,1024.000000) scale(0.100000,-0.100000)"
fill="#000000" stroke="none">
<path d="M8718 6585 c-1977 -599 -3540 -783 -6843 -804 l-990 -6 -3 -347 -2
-348 567 -2 566 -3 128 -365 c69 -201 155 -444 190 -540 l64 -175 359 -3 c198
-1 363 1 367 5 3 5 -17 76 -47 158 -29 83 -102 292 -162 465 -61 173 -122 348
-137 388 -15 40 -25 75 -22 78 2 3 164 9 358 14 409 11 519 15 984 36 187 8
371 16 409 17 l69 2 104 -315 c58 -173 145 -435 195 -582 l91 -268 357 0 c196
0 359 3 362 6 7 6 12 -10 -217 684 -92 278 -168 511 -169 519 -1 12 53 20 269
42 804 82 1583 214 2308 391 137 33 250 58 252 57 1 -2 -24 -69 -57 -149 -32
-80 -156 -386 -275 -680 -118 -294 -246 -607 -284 -695 -38 -88 -69 -163 -69
-168 0 -4 170 -6 377 -5 l376 3 30 70 c16 39 140 347 277 685 136 338 258 637
269 664 12 27 20 50 19 51 -2 2 -135 56 -295 120 -161 65 -290 121 -288 125 3
5 20 12 38 15 79 17 986 281 995 289 1 2 -33 120 -77 262 -43 143 -89 292
-100 332 -12 39 -25 71 -29 71 -4 -1 -145 -43 -314 -94z"/>
</g>
</svg>
