<?xml version="1.0" standalone="no"?>
<!DOCTYPE svg PUBLIC "-//W3C//DTD SVG 20010904//EN"
 "http://www.w3.org/TR/2001/REC-SVG-20010904/DTD/svg10.dtd">
<svg version="1.0" xmlns="http://www.w3.org/2000/svg"
 width="1024.000000pt" height="1024.000000pt" viewBox="0 0 1024.000000 1024.000000"
 preserveAspectRatio="xMidYMid meet">
<metadata>
Created by potrace 1.15, written by Peter Selinger 2001-2017
</metadata>
<g transform="translate(0.000000,1024.000000) scale(0.100000,-0.100000)"
fill="#000000" stroke="none">
<path d="M6540 10004 c-687 -327 -1677 -601 -2700 -749 -140 -20 -265 -41
-277 -46 l-23 -9 0 -3223 0 -3224 -47 -6 c-27 -4 -122 -12 -212 -19 -123 -9
-164 -15 -169 -26 -7 -18 47 -665 56 -674 4 -4 81 0 172 7 91 8 173 15 183 15
16 0 17 -49 17 -890 l0 -890 350 0 350 0 0 925 0 924 33 5 c17 3 165 21 327
41 631 77 1546 223 2128 341 l32 7 0 353 c0 195 -4 354 -8 354 -5 0 -98 -18
-208 -40 -550 -111 -1298 -231 -1961 -315 -153 -19 -293 -37 -310 -39 l-33 -5
0 875 0 874 1260 0 1260 0 0 345 0 345 -1260 0 -1260 0 0 780 0 780 1260 0
1260 0 0 350 0 350 -1260 0 -1260 0 0 545 c0 300 2 545 4 545 2 0 78 14 168
30 851 158 1704 408 2273 665 281 127 325 148 325 155 0 10 -280 614 -288 621
-4 3 -86 -31 -182 -77z"/>
</g>
</svg>
