<?xml version="1.0" standalone="no"?>
<!DOCTYPE svg PUBLIC "-//W3C//DTD SVG 20010904//EN"
 "http://www.w3.org/TR/2001/REC-SVG-20010904/DTD/svg10.dtd">
<svg version="1.0" xmlns="http://www.w3.org/2000/svg"
 width="1024.000000pt" height="1024.000000pt" viewBox="0 0 1024.000000 1024.000000"
 preserveAspectRatio="xMidYMid meet">
<metadata>
Created by potrace 1.15, written by Peter Selinger 2001-2017
</metadata>
<g transform="translate(0.000000,1024.000000) scale(0.100000,-0.100000)"
fill="#000000" stroke="none">
<path d="M2317 8843 c-4 -3 -7 -161 -7 -350 l0 -343 2271 0 c1357 0 2269 -4
2267 -9 -7 -20 -285 -315 -425 -451 -289 -282 -630 -570 -936 -790 l-140 -100
-288 0 -289 0 -2 -1548 -3 -1548 -39 -80 c-54 -108 -151 -206 -260 -260 l-80
-39 -420 -5 -421 -5 -3 -347 -2 -348 407 0 c443 0 532 7 676 54 348 115 666
427 784 771 60 175 56 92 60 1401 l4 1202 140 92 c83 56 143 90 149 84 4 -5
33 -72 63 -149 311 -796 771 -1618 1302 -2325 176 -233 252 -328 477 -586 164
-190 545 -579 684 -700 50 -43 142 -124 205 -180 190 -168 762 -605 795 -608
12 -1 419 542 412 549 -2 1 -124 94 -273 205 -305 229 -367 280 -620 506 -322
289 -681 670 -982 1044 -111 139 -455 618 -469 653 -2 7 125 143 284 302 445
448 829 892 1239 1435 114 152 380 522 406 566 8 13 -557 414 -567 403 -2 -2
-52 -74 -112 -159 -318 -458 -720 -961 -1107 -1387 -158 -175 -506 -533 -517
-533 -13 0 -166 299 -300 585 -125 268 -216 486 -294 707 l-45 127 132 113
c473 406 910 869 1271 1347 l115 153 -139 279 -140 279 -2628 0 c-1446 0
-2632 -3 -2635 -7z"/>
<path d="M880 6655 l0 -345 1250 0 c839 0 1250 -3 1250 -10 0 -15 -109 -286
-178 -440 -462 -1043 -1034 -1960 -1701 -2730 -181 -209 -523 -553 -763 -767
l-208 -185 98 -107 c54 -58 158 -175 231 -259 118 -134 136 -151 150 -139 101
85 417 372 529 482 985 958 1867 2323 2462 3810 77 193 152 396 185 503 l23
72 -77 103 c-42 56 -121 159 -174 230 l-98 127 -1490 0 -1489 0 0 -345z"/>
<path d="M1907 2083 c-4 -3 -7 -161 -7 -350 l0 -343 3218 2 3217 3 3 348 2
347 -3213 0 c-1768 0 -3217 -3 -3220 -7z"/>
</g>
</svg>
