<?xml version="1.0" standalone="no"?>
<!DOCTYPE svg PUBLIC "-//W3C//DTD SVG 20010904//EN"
 "http://www.w3.org/TR/2001/REC-SVG-20010904/DTD/svg10.dtd">
<svg version="1.0" xmlns="http://www.w3.org/2000/svg"
 width="1024.000000pt" height="1024.000000pt" viewBox="0 0 1024.000000 1024.000000"
 preserveAspectRatio="xMidYMid meet">
<metadata>
Created by potrace 1.15, written by Peter Selinger 2001-2017
</metadata>
<g transform="translate(0.000000,1024.000000) scale(0.100000,-0.100000)"
fill="#000000" stroke="none">
<path d="M270 8600 l0 -350 2250 0 2250 0 0 -775 0 -775 -1227 -2 -1228 -3 -3
-2802 -2 -2803 2810 0 2810 0 0 2805 0 2805 -1230 0 -1230 0 0 775 0 775 2250
0 2250 0 0 350 0 350 -4850 0 -4850 0 0 -350z m4500 -3480 l0 -880 -880 0
-880 0 0 880 0 880 880 0 880 0 0 -880z m2460 0 l0 -880 -880 0 -880 0 0 880
0 880 880 0 880 0 0 -880z m-2460 -2460 l0 -880 -880 0 -880 0 0 880 0 880
880 0 880 0 0 -880z m2460 0 l0 -880 -880 0 -880 0 0 880 0 880 880 0 880 0 0
-880z"/>
</g>
</svg>
