<?xml version="1.0" standalone="no"?>
<!DOCTYPE svg PUBLIC "-//W3C//DTD SVG 20010904//EN"
 "http://www.w3.org/TR/2001/REC-SVG-20010904/DTD/svg10.dtd">
<svg version="1.0" xmlns="http://www.w3.org/2000/svg"
 width="1024.000000pt" height="1024.000000pt" viewBox="0 0 1024.000000 1024.000000"
 preserveAspectRatio="xMidYMid meet">
<metadata>
Created by potrace 1.15, written by Peter Selinger 2001-2017
</metadata>
<g transform="translate(0.000000,1024.000000) scale(0.100000,-0.100000)"
fill="#000000" stroke="none">
<path d="M680 7170 l0 -350 4440 0 4440 0 0 350 0 350 -4440 0 -4440 0 0 -350z"/>
<path d="M1290 4095 l0 -1785 3830 0 3830 0 0 1785 0 1785 -3830 0 -3830 0 0
-1785z m6960 0 l0 -1085 -3130 0 -3130 0 0 1085 0 1085 3130 0 3130 0 0 -1085z"/>
</g>
</svg>
