<?xml version="1.0" standalone="no"?>
<!DOCTYPE svg PUBLIC "-//W3C//DTD SVG 20010904//EN"
 "http://www.w3.org/TR/2001/REC-SVG-20010904/DTD/svg10.dtd">
<svg version="1.0" xmlns="http://www.w3.org/2000/svg"
 width="1024.000000pt" height="1024.000000pt" viewBox="0 0 1024.000000 1024.000000"
 preserveAspectRatio="xMidYMid meet">
<metadata>
Created by potrace 1.15, written by Peter Selinger 2001-2017
</metadata>
<g transform="translate(0.000000,1024.000000) scale(0.100000,-0.100000)"
fill="#000000" stroke="none">
<path d="M4794 9773 c-191 -262 -431 -541 -703 -817 -412 -417 -769 -711
-1266 -1041 -260 -173 -423 -270 -740 -440 -121 -65 -239 -128 -262 -141 l-41
-24 50 -92 c27 -51 100 -187 160 -303 61 -115 113 -212 114 -214 9 -11 618
325 863 478 l161 100 0 -230 0 -229 1990 0 1990 0 0 230 0 231 58 -38 c69 -45
377 -228 481 -288 112 -63 483 -257 485 -253 15 21 316 598 316 604 0 5 -46
34 -102 63 -680 358 -1155 668 -1638 1070 -427 354 -888 835 -1200 1249 l-114
152 -276 0 -276 0 -50 -67z m413 -819 c323 -379 662 -718 1018 -1019 150 -126
322 -262 426 -336 l104 -74 -818 -3 c-449 -1 -1184 -1 -1632 0 l-815 3 103 75
c490 359 1012 847 1418 1327 57 68 107 122 111 120 4 -1 42 -43 85 -93z"/>
<path d="M2110 3280 l0 -3010 350 0 350 0 0 1020 0 1020 775 0 775 0 0 -465
c0 -440 -1 -469 -20 -522 -46 -130 -155 -249 -289 -316 l-84 -42 -214 -3 -213
-4 0 -344 0 -344 229 0 c249 0 336 11 464 57 387 139 691 471 799 875 l23 83
2 2503 3 2502 -1475 0 -1475 0 0 -3010z m2250 1840 l0 -470 -775 0 -775 0 0
470 0 470 775 0 775 0 0 -470z m0 -1640 l0 -470 -775 0 -775 0 0 470 0 470
775 0 775 0 0 -470z"/>
<path d="M7435 6278 c-3 -7 -6 -1120 -8 -2474 l-2 -2460 -37 -75 c-21 -40 -56
-95 -79 -122 -50 -58 -146 -128 -219 -159 -55 -23 -56 -23 -572 -26 l-518 -3
0 -344 0 -345 534 0 c578 0 619 3 769 57 184 65 343 170 488 320 158 163 247
320 311 548 l23 80 3 2508 2 2507 -345 0 c-267 0 -347 -3 -350 -12z"/>
<path d="M5800 3890 l0 -1990 345 0 345 0 0 1990 0 1990 -345 0 -345 0 0
-1990z"/>
</g>
</svg>
