<?xml version="1.0" standalone="no"?>
<!DOCTYPE svg PUBLIC "-//W3C//DTD SVG 20010904//EN"
 "http://www.w3.org/TR/2001/REC-SVG-20010904/DTD/svg10.dtd">
<svg version="1.0" xmlns="http://www.w3.org/2000/svg"
 width="1024.000000pt" height="1024.000000pt" viewBox="0 0 1024.000000 1024.000000"
 preserveAspectRatio="xMidYMid meet">
<metadata>
Created by potrace 1.15, written by Peter Selinger 2001-2017
</metadata>
<g transform="translate(0.000000,1024.000000) scale(0.100000,-0.100000)"
fill="#000000" stroke="none">
<path d="M6692 9980 c-472 -222 -1138 -462 -1807 -654 -589 -168 -1107 -286
-1702 -387 l-253 -43 0 -4313 0 -4313 345 0 345 0 0 510 0 510 1845 0 1845 0
0 350 0 350 -1845 0 -1845 0 2 1543 3 1542 1743 3 1742 2 0 350 0 350 -1745 0
-1745 0 0 1260 0 1260 23 10 c12 5 135 32 272 60 1101 225 2309 615 3168 1024
l138 65 -14 33 c-49 117 -282 588 -291 588 -6 0 -107 -45 -224 -100z"/>
</g>
</svg>
