<?xml version="1.0" standalone="no"?>
<!DOCTYPE svg PUBLIC "-//W3C//DTD SVG 20010904//EN"
 "http://www.w3.org/TR/2001/REC-SVG-20010904/DTD/svg10.dtd">
<svg version="1.0" xmlns="http://www.w3.org/2000/svg"
 width="1024.000000pt" height="1024.000000pt" viewBox="0 0 1024.000000 1024.000000"
 preserveAspectRatio="xMidYMid meet">
<metadata>
Created by potrace 1.15, written by Peter Selinger 2001-2017
</metadata>
<g transform="translate(0.000000,1024.000000) scale(0.100000,-0.100000)"
fill="#000000" stroke="none">
<path d="M3130 9215 l0 -345 820 0 820 0 0 -470 0 -470 -1022 -2 -1023 -3 -3
-347 -2 -348 310 0 310 0 -2 -2477 -3 -2477 -150 -27 c-82 -15 -274 -46 -425
-70 -151 -23 -278 -45 -282 -48 -3 -3 17 -157 46 -341 41 -265 55 -335 67
-338 20 -4 527 77 804 129 808 150 1675 363 2561 630 128 38 237 69 243 69 8
0 11 -276 11 -1005 l0 -1005 345 0 345 0 0 3480 0 3480 310 0 310 0 0 350 0
350 -1025 0 -1025 0 0 470 0 470 820 0 820 0 0 345 0 345 -1990 0 -1990 0 0
-345z m3078 -2507 l-3 -523 -1087 -3 -1088 -2 0 518 c0 285 3 522 7 525 3 4
494 7 1090 7 l1083 0 -2 -522z m0 -1740 l-3 -523 -1087 -3 -1088 -2 0 518 c0
285 3 522 7 525 3 4 494 7 1090 7 l1083 0 -2 -522z m0 -1585 l-3 -367 -170
-53 c-281 -88 -803 -240 -1085 -315 -308 -82 -870 -218 -900 -218 -20 0 -20 2
-20 653 0 360 3 657 7 660 3 4 494 7 1090 7 l1083 0 -2 -367z"/>
</g>
</svg>
