<?xml version="1.0" standalone="no"?>
<!DOCTYPE svg PUBLIC "-//W3C//DTD SVG 20010904//EN"
 "http://www.w3.org/TR/2001/REC-SVG-20010904/DTD/svg10.dtd">
<svg version="1.0" xmlns="http://www.w3.org/2000/svg"
 width="1024.000000pt" height="1024.000000pt" viewBox="0 0 1024.000000 1024.000000"
 preserveAspectRatio="xMidYMid meet">
<metadata>
Created by potrace 1.15, written by Peter Selinger 2001-2017
</metadata>
<g transform="translate(0.000000,1024.000000) scale(0.100000,-0.100000)"
fill="#000000" stroke="none">
<path d="M8080 7738 c-334 -297 -587 -496 -895 -704 -354 -239 -635 -397
-1257 -710 -247 -123 -448 -227 -448 -231 0 -13 272 -569 290 -593 l19 -25
328 163 c1150 573 1670 910 2397 1556 l168 148 -24 27 c-14 14 -67 75 -119
136 -118 138 -309 349 -318 352 -3 1 -67 -53 -141 -119z"/>
<path d="M1737 7530 c-81 -165 -147 -304 -147 -308 0 -4 39 -27 88 -51 112
-55 636 -328 767 -399 133 -72 503 -292 690 -410 166 -106 576 -394 700 -494
120 -96 361 -294 439 -361 37 -32 72 -55 76 -50 4 4 105 124 224 266 l217 257
-33 28 c-18 15 -82 70 -143 122 -626 541 -1460 1078 -2412 1554 -161 80 -299
146 -306 146 -8 0 -76 -128 -160 -300z"/>
<path d="M4090 4578 c-538 -461 -921 -753 -1356 -1028 -287 -182 -535 -320
-954 -527 -217 -108 -397 -198 -398 -199 -4 -3 287 -605 298 -617 9 -10 713
337 925 456 687 386 1201 755 1953 1400 205 177 231 202 219 216 -8 9 -65 77
-127 151 -101 120 -254 295 -299 342 -15 16 -33 3 -261 -194z"/>
<path d="M5631 4463 l-160 -307 52 -29 c29 -16 142 -76 252 -134 449 -237 723
-397 1103 -643 195 -127 651 -451 777 -552 44 -35 148 -115 230 -178 83 -63
215 -166 295 -230 228 -182 268 -212 278 -206 10 6 401 499 417 525 5 9 1 19
-12 30 -114 91 -805 627 -893 692 -63 47 -183 135 -266 197 -172 127 -614 419
-814 539 -229 137 -655 374 -882 491 l-216 112 -161 -307z"/>
</g>
</svg>
