<?xml version="1.0" standalone="no"?>
<!DOCTYPE svg PUBLIC "-//W3C//DTD SVG 20010904//EN"
 "http://www.w3.org/TR/2001/REC-SVG-20010904/DTD/svg10.dtd">
<svg version="1.0" xmlns="http://www.w3.org/2000/svg"
 width="1024.000000pt" height="1024.000000pt" viewBox="0 0 1024.000000 1024.000000"
 preserveAspectRatio="xMidYMid meet">
<metadata>
Created by potrace 1.15, written by Peter Selinger 2001-2017
</metadata>
<g transform="translate(0.000000,1024.000000) scale(0.100000,-0.100000)"
fill="#000000" stroke="none">
<path d="M4866 8402 c-2 -4 -41 -153 -86 -331 -122 -483 -264 -924 -408 -1271
l-40 -95 -364 -3 -364 -2 -99 202 c-167 343 -283 557 -498 918 -61 103 -261
413 -283 439 -5 6 -566 -363 -571 -376 -3 -7 49 -95 114 -195 160 -245 228
-361 410 -698 l153 -285 -870 -3 -870 -2 0 -350 0 -350 1453 -2 1454 -3 -54
-100 c-97 -178 -279 -476 -401 -655 l-119 -175 -1476 -3 -1477 -2 0 -350 0
-350 1190 0 c805 0 1190 -3 1190 -10 0 -19 -602 -614 -752 -745 -465 -403
-926 -735 -1485 -1070 -145 -86 -263 -160 -263 -165 0 -10 328 -568 346 -589
5 -5 116 60 374 217 1050 641 1937 1407 2614 2259 l81 103 1356 0 1355 0 24
-33 c78 -105 407 -482 577 -662 570 -599 1308 -1190 2038 -1632 55 -33 171
-104 258 -157 86 -53 160 -96 165 -96 9 1 352 574 352 589 0 6 -109 75 -242
155 -449 266 -811 516 -1193 822 -303 243 -613 527 -871 798 l-201 211 1193 3
1194 2 0 350 0 350 -1477 2 -1476 3 -109 160 c-147 217 -258 398 -371 600
l-94 170 1453 3 1454 2 0 350 0 350 -1060 0 c-583 0 -1060 2 -1060 4 0 3 42
69 93 148 175 267 592 972 622 1050 7 16 -34 41 -385 236 -80 44 -159 88 -177
98 -17 10 -34 16 -36 14 -3 -3 -70 -120 -149 -260 -238 -420 -462 -777 -701
-1117 l-121 -173 -547 0 -548 0 26 68 c50 128 182 528 238 717 64 218 197 746
190 753 -3 4 -626 165 -662 172 -1 0 -4 -3 -7 -8z m693 -2599 c99 -195 204
-383 347 -618 l73 -120 -429 -3 c-237 -1 -623 -1 -859 0 l-430 3 70 113 c118
191 245 418 350 625 l100 197 339 0 339 0 100 -197z"/>
</g>
</svg>
