<?xml version="1.0" standalone="no"?>
<!DOCTYPE svg PUBLIC "-//W3C//DTD SVG 20010904//EN"
 "http://www.w3.org/TR/2001/REC-SVG-20010904/DTD/svg10.dtd">
<svg version="1.0" xmlns="http://www.w3.org/2000/svg"
 width="1024.000000pt" height="1024.000000pt" viewBox="0 0 1024.000000 1024.000000"
 preserveAspectRatio="xMidYMid meet">
<metadata>
Created by potrace 1.15, written by Peter Selinger 2001-2017
</metadata>
<g transform="translate(0.000000,1024.000000) scale(0.100000,-0.100000)"
fill="#000000" stroke="none">
<path d="M2380 7542 c0 -34 -119 -625 -155 -772 -197 -795 -477 -1426 -946
-2125 -262 -391 -524 -728 -946 -1212 -112 -128 -203 -237 -203 -242 0 -5 55
-55 122 -112 68 -57 182 -157 255 -221 72 -65 135 -118 140 -117 4 0 55 55
113 121 58 67 150 174 206 238 449 518 836 1041 1119 1513 l88 147 3898 0
3899 0 0 350 0 350 -3724 0 -3723 0 68 169 c127 316 247 696 327 1041 61 260
151 744 140 755 -5 5 -641 125 -665 125 -7 0 -13 -4 -13 -8z"/>
</g>
</svg>
