<?xml version="1.0" standalone="no"?>
<!DOCTYPE svg PUBLIC "-//W3C//DTD SVG 20010904//EN"
 "http://www.w3.org/TR/2001/REC-SVG-20010904/DTD/svg10.dtd">
<svg version="1.0" xmlns="http://www.w3.org/2000/svg"
 width="1024.000000pt" height="1024.000000pt" viewBox="0 0 1024.000000 1024.000000"
 preserveAspectRatio="xMidYMid meet">
<metadata>
Created by potrace 1.15, written by Peter Selinger 2001-2017
</metadata>
<g transform="translate(0.000000,1024.000000) scale(0.100000,-0.100000)"
fill="#000000" stroke="none">
<path d="M4635 7048 c-144 -221 -367 -512 -595 -778 -202 -236 -317 -358 -614
-656 -502 -502 -933 -877 -1471 -1279 -580 -435 -991 -694 -1527 -966 -153
-77 -278 -142 -278 -144 0 -5 301 -608 307 -615 5 -6 400 193 588 296 677 371
1484 949 2178 1561 718 633 1388 1348 1803 1924 48 66 90 118 94 117 4 -2 43
-50 86 -108 351 -474 723 -900 1185 -1355 755 -745 1708 -1493 2504 -1967 269
-160 877 -480 888 -468 7 7 307 609 307 615 0 2 -126 68 -281 146 -599 301
-1212 704 -1844 1210 -148 119 -298 241 -331 270 -34 30 -124 108 -200 174
-696 605 -1431 1414 -1813 1997 l-96 147 -405 1 -405 0 -80 -122z"/>
</g>
</svg>
