<?xml version="1.0" standalone="no"?>
<!DOCTYPE svg PUBLIC "-//W3C//DTD SVG 20010904//EN"
 "http://www.w3.org/TR/2001/REC-SVG-20010904/DTD/svg10.dtd">
<svg version="1.0" xmlns="http://www.w3.org/2000/svg"
 width="1024.000000pt" height="1024.000000pt" viewBox="0 0 1024.000000 1024.000000"
 preserveAspectRatio="xMidYMid meet">
<metadata>
Created by potrace 1.15, written by Peter Selinger 2001-2017
</metadata>
<g transform="translate(0.000000,1024.000000) scale(0.100000,-0.100000)"
fill="#000000" stroke="none">
<path d="M1090 8600 l0 -350 3411 0 3411 0 -83 -107 c-1074 -1396 -2366 -2634
-3879 -3719 -200 -144 -547 -383 -565 -390 -13 -5 -77 159 -144 371 -64 199
-127 451 -189 750 l-47 230 -341 3 -342 2 -11 -47 c-6 -27 -36 -160 -66 -297
-196 -868 -450 -1508 -832 -2090 -160 -245 -339 -474 -781 -999 -161 -191
-293 -351 -295 -356 -3 -11 507 -446 524 -446 8 0 555 651 719 855 483 601
808 1167 1032 1797 23 68 45 123 48 123 3 0 20 -39 39 -88 87 -220 275 -562
406 -737 228 -304 550 -599 886 -810 231 -145 667 -347 973 -451 594 -202
1402 -364 2211 -443 116 -12 233 -23 260 -26 470 -47 1433 -85 2148 -85 l387
0 0 350 0 350 -457 0 c-1602 1 -2942 131 -3863 376 -216 58 -479 142 -660 211
-456 175 -876 439 -1126 707 -146 157 -148 129 18 242 1176 806 2079 1552
2994 2476 507 512 871 919 1319 1478 243 303 685 900 685 925 0 7 -63 131
-139 276 l-139 264 -3756 3 -3756 2 0 -350z"/>
</g>
</svg>
