<?xml version="1.0" standalone="no"?>
<!DOCTYPE svg PUBLIC "-//W3C//DTD SVG 20010904//EN"
 "http://www.w3.org/TR/2001/REC-SVG-20010904/DTD/svg10.dtd">
<svg version="1.0" xmlns="http://www.w3.org/2000/svg"
 width="1024.000000pt" height="1024.000000pt" viewBox="0 0 1024.000000 1024.000000"
 preserveAspectRatio="xMidYMid meet">
<metadata>
Created by potrace 1.15, written by Peter Selinger 2001-2017
</metadata>
<g transform="translate(0.000000,1024.000000) scale(0.100000,-0.100000)"
fill="#000000" stroke="none">
<path d="M805 6824 c-143 -119 -260 -222 -260 -229 0 -8 49 -71 109 -140 153
-179 448 -559 590 -760 145 -206 415 -611 487 -732 29 -48 103 -169 164 -268
126 -202 508 -878 698 -1235 69 -129 130 -236 134 -237 9 -3 580 301 598 318
11 11 -17 71 -139 289 -51 91 -115 206 -141 255 -255 478 -621 1094 -959 1614
-94 144 -334 484 -455 646 -149 199 -544 687 -560 692 -3 2 -123 -94 -266
-213z"/>
<path d="M9037 7003 c-3 -4 -46 -100 -97 -213 -347 -773 -1148 -2175 -1711
-2998 -67 -97 -122 -183 -123 -191 -1 -12 545 -392 562 -391 9 1 20 17 231
333 444 665 1016 1641 1412 2413 115 224 359 746 359 768 0 9 -256 126 -616
282 -7 3 -14 2 -17 -3z"/>
</g>
</svg>
