<?xml version="1.0" standalone="no"?>
<!DOCTYPE svg PUBLIC "-//W3C//DTD SVG 20010904//EN"
 "http://www.w3.org/TR/2001/REC-SVG-20010904/DTD/svg10.dtd">
<svg version="1.0" xmlns="http://www.w3.org/2000/svg"
 width="1024.000000pt" height="1024.000000pt" viewBox="0 0 1024.000000 1024.000000"
 preserveAspectRatio="xMidYMid meet">
<metadata>
Created by potrace 1.15, written by Peter Selinger 2001-2017
</metadata>
<g transform="translate(0.000000,1024.000000) scale(0.100000,-0.100000)"
fill="#000000" stroke="none">
<path d="M8199 6853 c-454 -491 -975 -972 -1657 -1531 -95 -78 -177 -142 -182
-142 -15 0 -227 199 -410 386 -354 361 -607 675 -930 1155 -106 156 -198 290
-205 297 -10 11 -64 -21 -296 -173 -156 -103 -286 -189 -287 -190 -4 -4 181
-285 309 -470 519 -753 1147 -1408 1845 -1927 701 -520 1503 -946 2399 -1273
300 -110 1062 -352 1072 -341 5 5 203 660 200 662 -1 1 -103 32 -227 69 -543
161 -1025 336 -1509 549 -152 67 -580 288 -772 398 -157 90 -630 397 -628 408
0 3 102 89 227 192 457 377 810 695 1183 1068 268 266 549 567 549 586 0 6
-42 49 -92 94 -51 46 -162 146 -247 224 -84 78 -157 142 -161 144 -4 2 -86
-82 -181 -185z"/>
<path d="M1900 5286 l0 -1613 -32 -6 c-18 -3 -139 -28 -268 -56 -285 -60 -673
-133 -1075 -201 -164 -28 -301 -53 -304 -56 -5 -5 105 -673 112 -680 4 -4 544
88 856 147 1011 189 1955 420 2881 704 192 59 1071 344 1077 349 3 3 -207 649
-213 655 -2 3 -185 -54 -407 -127 -704 -230 -1269 -397 -1727 -512 -91 -23
-173 -44 -182 -46 -17 -5 -18 72 -18 1525 l0 1531 -350 0 -350 0 0 -1614z"/>
</g>
</svg>
