<?xml version="1.0" standalone="no"?>
<!DOCTYPE svg PUBLIC "-//W3C//DTD SVG 20010904//EN"
 "http://www.w3.org/TR/2001/REC-SVG-20010904/DTD/svg10.dtd">
<svg version="1.0" xmlns="http://www.w3.org/2000/svg"
 width="1024.000000pt" height="1024.000000pt" viewBox="0 0 1024.000000 1024.000000"
 preserveAspectRatio="xMidYMid meet">
<metadata>
Created by potrace 1.15, written by Peter Selinger 2001-2017
</metadata>
<g transform="translate(0.000000,1024.000000) scale(0.100000,-0.100000)"
fill="#000000" stroke="none">
<path d="M680 6760 l0 -350 1675 0 c921 0 1675 -3 1675 -7 0 -21 -80 -290
-126 -424 -265 -772 -773 -1537 -1509 -2273 -545 -545 -1127 -1008 -1988
-1582 -192 -127 -267 -182 -264 -194 3 -8 83 -133 178 -276 96 -144 179 -269
184 -278 9 -15 58 15 365 221 380 255 479 325 745 523 718 536 1350 1125 1839
1715 604 729 1029 1529 1230 2317 19 73 40 161 46 196 l13 62 2613 0 2614 0 0
350 0 350 -4645 0 -4645 0 0 -350z"/>
</g>
</svg>
