<?xml version="1.0" standalone="no"?>
<!DOCTYPE svg PUBLIC "-//W3C//DTD SVG 20010904//EN"
 "http://www.w3.org/TR/2001/REC-SVG-20010904/DTD/svg10.dtd">
<svg version="1.0" xmlns="http://www.w3.org/2000/svg"
 width="1024.000000pt" height="1024.000000pt" viewBox="0 0 1024.000000 1024.000000"
 preserveAspectRatio="xMidYMid meet">
<metadata>
Created by potrace 1.15, written by Peter Selinger 2001-2017
</metadata>
<g transform="translate(0.000000,1024.000000) scale(0.100000,-0.100000)"
fill="#000000" stroke="none">
<path d="M4770 9460 l0 -510 -920 0 -920 0 0 -350 0 -350 920 0 920 0 0 -470
0 -470 -820 0 -820 0 0 -1985 0 -1985 820 0 820 0 0 -470 0 -470 -920 0 -920
0 0 -350 0 -350 920 0 920 0 0 -715 0 -715 350 0 350 0 0 715 0 715 920 0 920
0 0 350 0 350 -920 0 -920 0 0 470 0 470 820 0 820 0 0 1985 0 1985 -820 0
-820 0 0 470 0 470 920 0 920 0 0 350 0 350 -920 0 -920 0 0 510 0 510 -350 0
-350 0 0 -510z m1640 -3315 l0 -475 -1290 0 -1290 0 0 475 0 475 1290 0 1290
0 0 -475z m0 -1640 l0 -475 -1290 0 -1290 0 0 475 0 475 1290 0 1290 0 0 -475z"/>
</g>
</svg>
