<?xml version="1.0" standalone="no"?>
<!DOCTYPE svg PUBLIC "-//W3C//DTD SVG 20010904//EN"
 "http://www.w3.org/TR/2001/REC-SVG-20010904/DTD/svg10.dtd">
<svg version="1.0" xmlns="http://www.w3.org/2000/svg"
 width="1024.000000pt" height="1024.000000pt" viewBox="0 0 1024.000000 1024.000000"
 preserveAspectRatio="xMidYMid meet">
<metadata>
Created by potrace 1.15, written by Peter Selinger 2001-2017
</metadata>
<g transform="translate(0.000000,1024.000000) scale(0.100000,-0.100000)"
fill="#000000" stroke="none">
<path d="M4770 9355 l0 -615 -2250 0 -2250 0 0 -345 0 -345 2250 0 2250 0 0
-470 0 -470 -1635 0 -1635 0 0 -3215 0 -3215 3620 0 3620 0 0 3215 0 3215
-1635 0 -1635 0 0 470 0 470 2250 0 2250 0 0 345 0 345 -2250 0 -2250 0 0 615
0 615 -350 0 -350 0 0 -615z m3280 -3555 l0 -610 -2930 0 -2930 0 0 610 0 610
2930 0 2930 0 0 -610z m0 -1905 l0 -605 -2930 0 -2930 0 0 598 c0 329 3 602 7
605 3 4 1322 7 2930 7 l2923 0 0 -605z m0 -1915 l0 -610 -2930 0 -2930 0 0
610 0 610 2930 0 2930 0 0 -610z"/>
</g>
</svg>
