<?xml version="1.0" standalone="no"?>
<!DOCTYPE svg PUBLIC "-//W3C//DTD SVG 20010904//EN"
 "http://www.w3.org/TR/2001/REC-SVG-20010904/DTD/svg10.dtd">
<svg version="1.0" xmlns="http://www.w3.org/2000/svg"
 width="1024.000000pt" height="1024.000000pt" viewBox="0 0 1024.000000 1024.000000"
 preserveAspectRatio="xMidYMid meet">
<metadata>
Created by potrace 1.15, written by Peter Selinger 2001-2017
</metadata>
<g transform="translate(0.000000,1024.000000) scale(0.100000,-0.100000)"
fill="#000000" stroke="none">
<path d="M270 8240 l0 -1320 345 0 345 0 0 975 0 975 1090 0 c600 0 1090 -3
1090 -7 0 -4 -57 -65 -127 -136 l-128 -129 370 -363 370 -364 203 202 c112
111 222 224 244 250 l41 48 -254 249 -254 249 2838 0 2837 1 0 -975 0 -975
345 0 345 0 0 1320 0 1320 -4850 0 -4850 0 0 -1320z"/>
<path d="M1999 8470 c-118 -143 -215 -266 -216 -273 -1 -7 41 -46 94 -87 94
-74 160 -129 474 -400 155 -133 623 -565 707 -653 l44 -45 -149 -132 c-179
-160 -380 -328 -568 -475 -152 -119 -575 -425 -587 -425 -5 0 -8 208 -8 462 0
438 1 460 18 446 9 -8 82 -67 162 -131 80 -63 174 -140 210 -171 36 -31 68
-55 72 -53 14 4 436 532 432 539 -3 4 -96 80 -207 170 -111 89 -254 205 -317
258 -63 53 -151 124 -195 159 l-80 63 -47 -54 -47 -53 -1 133 0 132 -343 0
-344 0 -6 -547 c-4 -302 -8 -1052 -8 -1668 l-1 -1120 2391 -3 c1908 -2 2392 0
2396 10 2 7 6 754 10 1661 l6 1647 -348 -2 -348 -3 -5 -323 -5 -324 -144 138
-144 139 -242 -249 -241 -249 245 -241 c135 -132 303 -296 372 -364 75 -73
129 -119 133 -113 20 31 26 0 26 -123 0 -73 -3 -160 -6 -193 l-6 -59 -142 145
c-78 80 -252 260 -386 400 -135 139 -314 325 -399 412 l-153 159 108 116 c192
204 357 388 501 556 185 215 493 599 493 614 0 6 -70 67 -156 135 -392 311
-377 300 -389 287 -7 -7 -93 -114 -192 -238 -196 -244 -369 -448 -550 -648
-141 -155 -303 -322 -313 -322 -4 0 -72 62 -151 138 -126 119 -270 254 -454
423 -149 138 -670 578 -764 647 -16 11 -41 -16 -232 -248z m2399 -2772 c168
-175 310 -318 314 -318 5 0 110 99 236 219 l227 219 3 -285 c1 -157 1 -288 -1
-290 -2 -2 -255 -2 -563 -1 l-559 3 117 121 118 121 -372 362 -372 362 -237
-243 c-131 -134 -238 -248 -238 -253 -1 -6 103 -111 229 -234 127 -122 230
-227 230 -232 0 -5 -349 -9 -875 -9 l-875 0 0 325 c0 179 4 325 8 325 5 0 89
-113 187 -250 98 -138 181 -253 184 -254 6 -4 183 119 419 292 274 200 665
522 927 762 l90 83 248 -254 c137 -140 387 -397 555 -571z"/>
<path d="M7968 8287 c-193 -292 -343 -472 -601 -723 -337 -329 -666 -557
-1101 -764 -158 -75 -175 -86 -170 -104 6 -18 292 -596 299 -604 7 -8 513 254
634 327 490 297 976 742 1343 1228 67 88 288 418 288 429 0 2 -26 21 -57 41
-32 20 -139 90 -238 156 -99 66 -203 134 -232 153 l-51 33 -114 -172z"/>
<path d="M8745 6077 c-149 -175 -548 -577 -755 -759 -430 -379 -866 -701
-1266 -935 -82 -48 -259 -144 -392 -213 -133 -69 -242 -129 -242 -133 0 -5 58
-120 129 -255 71 -136 142 -272 157 -303 l27 -57 176 91 c806 414 1397 834
2105 1496 286 268 715 734 703 764 -3 8 -67 67 -144 132 -76 66 -188 163 -249
217 -62 54 -116 98 -120 97 -5 0 -63 -64 -129 -142z"/>
<path d="M1100 3078 c0 -1296 1 -1312 50 -1488 124 -439 491 -699 1145 -809
373 -63 934 -85 1540 -61 792 32 1220 124 1527 331 88 59 236 210 293 297 57
89 123 228 160 337 35 103 145 558 136 566 -11 11 -661 163 -667 156 -4 -3
-29 -100 -56 -214 -93 -394 -138 -488 -271 -574 -144 -94 -413 -154 -852 -191
-100 -9 -343 -13 -725 -13 -597 0 -708 6 -975 51 -227 38 -441 119 -519 198
-74 74 -99 202 -94 475 l3 155 215 27 c974 122 2047 413 3035 822 301 124 303
125 308 134 3 5 -25 78 -62 163 -37 85 -96 226 -131 312 -36 87 -69 158 -74
158 -5 0 -134 -51 -285 -114 -712 -295 -1395 -506 -2131 -660 -303 -63 -761
-136 -857 -136 l-23 0 0 645 0 645 -345 0 -345 0 0 -1212z"/>
<path d="M9449 3808 c-376 -428 -924 -930 -1434 -1314 -546 -412 -1062 -713
-1659 -970 -131 -56 -242 -106 -247 -111 -6 -6 24 -87 79 -214 49 -112 109
-252 133 -311 24 -59 49 -108 56 -108 20 0 431 178 601 260 742 360 1453 848
2192 1504 185 164 681 662 820 824 63 73 116 136 118 140 3 9 -308 289 -499
449 -15 13 -33 -4 -160 -149z"/>
</g>
</svg>
