<?xml version="1.0" standalone="no"?>
<!DOCTYPE svg PUBLIC "-//W3C//DTD SVG 20010904//EN"
 "http://www.w3.org/TR/2001/REC-SVG-20010904/DTD/svg10.dtd">
<svg version="1.0" xmlns="http://www.w3.org/2000/svg"
 width="1024.000000pt" height="1024.000000pt" viewBox="0 0 1024.000000 1024.000000"
 preserveAspectRatio="xMidYMid meet">
<metadata>
Created by potrace 1.15, written by Peter Selinger 2001-2017
</metadata>
<g transform="translate(0.000000,1024.000000) scale(0.100000,-0.100000)"
fill="#000000" stroke="none">
<path d="M7680 10024 c-549 -179 -1226 -346 -2020 -499 -954 -184 -2224 -336
-3180 -380 -74 -3 -146 -8 -160 -11 l-25 -5 18 -332 c10 -182 20 -338 23 -345
3 -11 24 -13 97 -8 50 4 236 15 412 27 1224 76 2433 247 3650 515 611 135
1505 386 1513 424 4 21 -201 643 -213 646 -6 1 -57 -13 -115 -32z"/>
<path d="M7301 8648 c-236 -622 -656 -1490 -1093 -2258 l-54 -95 -1919 -5
-1920 -5 -3 -347 -2 -348 1230 0 1230 0 0 -675 0 -675 -1330 0 -1330 0 0 -350
0 -350 1330 0 1330 0 0 -980 0 -980 -880 0 -880 0 0 715 0 715 -350 0 -350 0
0 -1370 0 -1370 350 0 350 0 0 305 0 305 2110 0 2110 0 0 -305 0 -305 350 0
350 0 0 1370 0 1370 -350 0 -350 0 0 -715 0 -715 -880 0 -880 0 0 980 0 980
1330 0 1330 0 0 350 0 350 -1330 0 -1330 0 0 675 0 675 1228 2 1227 3 3 347 2
348 -488 2 -489 3 114 210 c134 247 392 761 517 1030 181 390 443 1031 433
1059 -3 6 -29 19 -58 30 -30 10 -168 63 -306 117 -139 55 -259 99 -266 99 -8
0 -42 -76 -86 -192z"/>
<path d="M4787 8516 c-169 -73 -311 -136 -316 -142 -6 -5 11 -57 45 -134 244
-554 423 -1130 524 -1685 17 -93 33 -177 36 -186 4 -14 46 -8 339 46 184 34
337 64 340 66 7 8 -88 497 -130 669 -78 316 -195 685 -305 964 -66 166 -220
537 -223 535 -1 0 -140 -60 -310 -133z"/>
<path d="M2783 8217 c-172 -73 -313 -137 -313 -143 0 -6 35 -96 79 -200 254
-611 347 -847 477 -1223 107 -307 116 -331 124 -331 10 0 642 218 647 223 17
18 -413 1159 -589 1562 -39 88 -78 179 -88 203 -11 23 -20 42 -22 42 -2 -1
-143 -60 -315 -133z"/>
</g>
</svg>
