<?xml version="1.0" standalone="no"?>
<!DOCTYPE svg PUBLIC "-//W3C//DTD SVG 20010904//EN"
 "http://www.w3.org/TR/2001/REC-SVG-20010904/DTD/svg10.dtd">
<svg version="1.0" xmlns="http://www.w3.org/2000/svg"
 width="1024.000000pt" height="1024.000000pt" viewBox="0 0 1024.000000 1024.000000"
 preserveAspectRatio="xMidYMid meet">
<metadata>
Created by potrace 1.16, written by Peter Selinger 2001-2019
</metadata>
<g transform="translate(0.000000,1024.000000) scale(0.100000,-0.100000)"
fill="#000000" stroke="none">
<path d="M4770 6963 c0 -1774 -57 -2368 -284 -2995 -115 -318 -247 -563 -536
-998 -64 -96 -120 -180 -124 -187 -4 -8 87 -75 278 -203 157 -104 288 -190
291 -190 11 0 334 496 409 629 410 715 578 1350 636 2406 12 220 29 999 30
1353 l0 242 1085 0 1085 0 2 -1742 3 -1743 26 -96 c38 -135 80 -231 148 -334
115 -176 230 -291 406 -406 104 -69 201 -111 334 -147 83 -22 117 -25 246 -25
129 0 163 3 246 25 232 63 422 177 592 358 140 149 244 331 295 518 l27 97 3
663 3 662 -346 0 -345 0 0 -602 0 -603 -24 -66 c-49 -138 -149 -249 -291 -320
-79 -40 -81 -41 -170 -37 -81 4 -97 8 -163 42 -96 51 -196 152 -248 248 l-39
73 -3 2068 -2 2067 -1785 0 -1785 0 0 -757z"/>
<path d="M680 7170 l0 -350 610 0 610 0 0 -1513 0 -1514 -67 -20 c-651 -199
-912 -271 -1328 -368 -159 -37 -294 -71 -298 -75 -4 -4 26 -154 67 -334 42
-180 76 -329 76 -332 0 -10 47 0 329 66 1051 248 2223 640 3223 1081 131 57
238 108 238 113 0 15 -274 626 -281 626 -5 0 -124 -51 -266 -114 -326 -143
-956 -396 -989 -396 -2 0 -4 626 -4 1390 l0 1390 715 0 715 0 0 350 0 350
-1675 0 -1675 0 0 -350z"/>
<path d="M5950 5614 c-151 -101 -276 -188 -278 -193 -3 -8 1162 -1766 1189
-1795 8 -9 578 362 579 377 0 15 -1194 1797 -1204 1796 -6 0 -135 -83 -286
-185z"/>
</g>
</svg>
