<?xml version="1.0" standalone="no"?>
<!DOCTYPE svg PUBLIC "-//W3C//DTD SVG 20010904//EN"
 "http://www.w3.org/TR/2001/REC-SVG-20010904/DTD/svg10.dtd">
<svg version="1.0" xmlns="http://www.w3.org/2000/svg"
 width="1024.000000pt" height="1024.000000pt" viewBox="0 0 1024.000000 1024.000000"
 preserveAspectRatio="xMidYMid meet">
<metadata>
Created by potrace 1.15, written by Peter Selinger 2001-2017
</metadata>
<g transform="translate(0.000000,1024.000000) scale(0.100000,-0.100000)"
fill="#000000" stroke="none">
<path d="M3748 5468 l-3 -1023 -1737 -3 -1738 -2 0 -345 0 -345 4850 0 4850 0
0 345 0 345 -915 0 c-603 0 -915 3 -915 10 0 5 63 124 140 262 158 283 369
698 454 890 66 150 218 529 214 533 -7 7 -641 256 -643 253 -2 -2 -45 -106
-95 -233 -182 -453 -415 -909 -787 -1540 l-100 -170 -417 -3 -416 -2 0 1025 0
1025 -345 0 -345 0 -2 -1022 -3 -1023 -677 -3 -678 -2 0 1025 0 1025 -345 0
-345 0 -2 -1022z"/>
<path d="M1620 6249 c-157 -89 -290 -166 -297 -173 -9 -8 25 -77 148 -296 87
-157 255 -473 372 -702 116 -230 215 -418 220 -418 17 0 607 301 607 310 0 14
-279 572 -385 770 -226 424 -364 670 -375 670 -3 0 -133 -73 -290 -161z"/>
</g>
</svg>
