<?xml version="1.0" standalone="no"?>
<!DOCTYPE svg PUBLIC "-//W3C//DTD SVG 20010904//EN"
 "http://www.w3.org/TR/2001/REC-SVG-20010904/DTD/svg10.dtd">
<svg version="1.0" xmlns="http://www.w3.org/2000/svg"
 width="1024.000000pt" height="1024.000000pt" viewBox="0 0 1024.000000 1024.000000"
 preserveAspectRatio="xMidYMid meet">
<metadata>
Created by potrace 1.15, written by Peter Selinger 2001-2017
</metadata>
<g transform="translate(0.000000,1024.000000) scale(0.100000,-0.100000)"
fill="#000000" stroke="none">
<path d="M4796 8778 c-37 -221 -98 -538 -117 -610 l-10 -38 -1789 0 -1790 0 0
-350 0 -350 1690 0 c1003 0 1690 -4 1690 -9 0 -33 -219 -629 -308 -836 l-38
-90 -1517 -3 -1517 -2 0 -345 0 -345 1350 0 c743 0 1350 -2 1350 -5 0 -7 -127
-243 -205 -380 -79 -140 -256 -432 -307 -507 l-39 -58 -1279 0 -1280 0 0 -345
0 -345 1035 0 c569 0 1035 -3 1035 -6 0 -19 -343 -437 -545 -664 -166 -186
-601 -622 -775 -776 -384 -340 -636 -534 -1066 -824 l-232 -156 185 -275 c101
-151 188 -281 193 -289 16 -28 632 401 975 678 297 240 481 406 784 706 482
477 892 961 1303 1539 l48 67 1502 0 1503 0 60 -87 c235 -340 606 -801 925
-1148 583 -635 1218 -1177 1923 -1643 104 -68 189 -123 191 -121 2 2 89 132
195 288 l191 284 -108 71 c-566 373 -1041 753 -1497 1198 -336 328 -670 702
-924 1033 l-92 120 1036 3 1035 2 0 345 0 345 -1283 0 -1283 0 -90 148 c-211
343 -459 784 -447 795 3 4 611 7 1350 7 l1343 0 0 345 0 345 -2135 0 c-1174 0
-2135 1 -2135 3 0 2 37 102 83 223 45 120 118 330 162 466 l80 248 1973 0
1972 0 0 350 0 350 -1880 0 c-1580 0 -1880 2 -1880 14 0 7 11 67 24 132 33
159 108 605 103 610 -3 4 -658 114 -675 114 -5 0 -25 -100 -46 -222z m1009
-3250 c77 -149 191 -361 253 -471 61 -111 112 -202 112 -204 0 -2 -472 -3
-1050 -3 -577 0 -1050 3 -1050 6 0 3 47 87 104 187 124 217 281 513 347 655
l48 102 548 0 548 -1 140 -271z"/>
</g>
</svg>
