<?xml version="1.0" standalone="no"?>
<!DOCTYPE svg PUBLIC "-//W3C//DTD SVG 20010904//EN"
 "http://www.w3.org/TR/2001/REC-SVG-20010904/DTD/svg10.dtd">
<svg version="1.0" xmlns="http://www.w3.org/2000/svg"
 width="1024.000000pt" height="1024.000000pt" viewBox="0 0 1024.000000 1024.000000"
 preserveAspectRatio="xMidYMid meet">
<metadata>
Created by potrace 1.15, written by Peter Selinger 2001-2017
</metadata>
<g transform="translate(0.000000,1024.000000) scale(0.100000,-0.100000)"
fill="#000000" stroke="none">
<path d="M4741 9705 c-52 -73 -344 -437 -480 -600 -229 -273 -361 -417 -635
-691 -425 -424 -693 -643 -1238 -1011 l-207 -140 185 -279 c103 -154 190 -283
194 -287 12 -14 396 242 653 435 65 48 120 88 122 88 3 0 5 -67 5 -150 l0
-150 715 0 715 0 0 -420 0 -420 -1125 0 -1125 0 0 -1370 0 -1370 1040 0 c638
0 1040 -4 1040 -9 0 -23 -96 -295 -142 -401 -335 -782 -931 -1377 -2090 -2089
-92 -56 -170 -107 -174 -112 -7 -12 16 -51 176 -304 70 -110 138 -219 151
-242 13 -24 27 -43 32 -43 12 0 479 294 642 404 483 327 796 586 1123 931 318
335 606 768 777 1170 l17 40 11 -25 c37 -86 196 -369 283 -506 157 -244 246
-367 399 -551 446 -534 934 -928 1595 -1286 305 -166 318 -172 323 -167 2 3
59 109 127 235 67 127 140 262 161 301 l39 72 -212 112 c-529 280 -866 523
-1240 893 -161 158 -383 426 -504 607 -154 229 -358 601 -455 827 l-58 138
1069 3 1070 2 0 1370 0 1370 -1125 0 -1125 0 0 420 0 420 715 0 715 0 0 150
c0 83 2 150 5 150 2 0 85 -59 182 -131 225 -166 583 -403 593 -392 4 4 91 134
193 287 l186 279 -187 127 c-392 264 -503 347 -807 604 -312 263 -769 729
-1060 1081 -257 310 -356 433 -443 548 l-96 127 -346 0 -347 0 -32 -45z m396
-669 c12 -21 300 -368 452 -545 242 -283 626 -679 836 -863 5 -4 -582 -8
-1304 -8 l-1312 0 93 86 c319 297 736 753 1081 1182 72 89 135 162 139 162 4
0 11 -6 15 -14z m-370 -4193 c-4 -470 -15 -749 -32 -800 -3 -10 -164 -13 -760
-13 l-755 0 0 680 0 680 776 0 776 0 -5 -547z m2253 -133 l0 -680 -791 0 -792
0 7 78 c17 203 26 473 26 860 l0 422 775 0 775 0 0 -680z"/>
</g>
</svg>
