<?xml version="1.0" standalone="no"?>
<!DOCTYPE svg PUBLIC "-//W3C//DTD SVG 20010904//EN"
 "http://www.w3.org/TR/2001/REC-SVG-20010904/DTD/svg10.dtd">
<svg version="1.0" xmlns="http://www.w3.org/2000/svg"
 width="1024.000000pt" height="1024.000000pt" viewBox="0 0 1024.000000 1024.000000"
 preserveAspectRatio="xMidYMid meet">
<metadata>
Created by potrace 1.15, written by Peter Selinger 2001-2017
</metadata>
<g transform="translate(0.000000,1024.000000) scale(0.100000,-0.100000)"
fill="#000000" stroke="none">
<path d="M6625 9978 c-504 -471 -992 -852 -1685 -1315 -810 -540 -1806 -1103
-2675 -1512 -176 -83 -355 -168 -398 -188 l-77 -38 78 -165 c43 -91 106 -226
140 -300 35 -74 66 -141 71 -148 9 -15 379 152 789 357 l262 131 0 -3265 0
-3265 350 0 350 0 0 3453 0 3452 178 99 c158 89 689 403 768 456 l31 20 12
-127 c79 -823 281 -1791 533 -2538 171 -510 300 -840 486 -1240 384 -829 819
-1541 1356 -2217 187 -237 201 -253 410 -489 139 -156 576 -599 591 -599 5 0
118 108 250 240 l239 239 -105 108 c-57 59 -149 152 -205 208 -260 259 -582
641 -849 1005 -226 309 -459 667 -619 949 -125 220 -340 634 -419 806 -112
244 -307 715 -307 741 0 7 96 79 212 161 117 81 330 236 473 343 706 528 1214
981 1695 1510 l123 135 -79 74 c-43 40 -159 146 -258 233 l-178 160 -23 -23
c-12 -13 -96 -105 -187 -204 -317 -346 -649 -650 -1117 -1024 -384 -307 -892
-677 -902 -658 -21 38 -160 569 -223 849 -110 491 -203 1166 -232 1678 l-6
115 173 120 c497 345 963 717 1406 1123 182 167 191 177 177 196 -8 12 -79 88
-157 171 -78 82 -176 187 -217 233 -40 45 -79 82 -84 81 -6 0 -74 -59 -151
-131z"/>
</g>
</svg>
