<?xml version="1.0" standalone="no"?>
<!DOCTYPE svg PUBLIC "-//W3C//DTD SVG 20010904//EN"
 "http://www.w3.org/TR/2001/REC-SVG-20010904/DTD/svg10.dtd">
<svg version="1.0" xmlns="http://www.w3.org/2000/svg"
 width="1024.000000pt" height="1024.000000pt" viewBox="0 0 1024.000000 1024.000000"
 preserveAspectRatio="xMidYMid meet">
<metadata>
Created by potrace 1.15, written by Peter Selinger 2001-2017
</metadata>
<g transform="translate(0.000000,1024.000000) scale(0.100000,-0.100000)"
fill="#000000" stroke="none">
<path d="M4777 7923 c-4 -3 -7 -235 -7 -515 l0 -508 -2045 0 -2045 0 0 -345 0
-345 1674 0 c921 0 1677 -3 1679 -7 2 -5 -104 -219 -235 -478 -131 -258 -439
-864 -684 -1347 -245 -482 -450 -880 -457 -886 -7 -5 -109 -14 -227 -21 -282
-15 -959 -49 -1177 -59 -95 -4 -175 -10 -178 -13 -6 -6 25 -681 31 -688 5 -5
754 31 1319 64 1773 104 3257 238 4939 446 312 39 574 68 580 66 14 -5 362
-462 541 -711 71 -98 135 -180 141 -183 10 -4 547 376 558 395 4 7 -228 331
-378 527 -227 297 -378 491 -472 605 -56 69 -158 193 -225 275 -67 83 -157
191 -199 240 -315 368 -426 497 -599 690 -108 120 -241 267 -296 325 -55 58
-152 162 -215 230 -63 69 -121 125 -128 125 -13 0 -502 -454 -502 -466 0 -3
51 -60 113 -125 318 -337 782 -855 1014 -1133 120 -144 121 -146 95 -154 -70
-19 -1388 -165 -2182 -242 -663 -63 -1727 -151 -1735 -143 -4 3 1317 2609
1341 2646 l14 22 2365 0 2365 0 0 345 0 345 -2045 0 -2045 0 0 515 0 515 -343
0 c-189 0 -347 -3 -350 -7z"/>
</g>
</svg>
