<?xml version="1.0" standalone="no"?>
<!DOCTYPE svg PUBLIC "-//W3C//DTD SVG 20010904//EN"
 "http://www.w3.org/TR/2001/REC-SVG-20010904/DTD/svg10.dtd">
<svg version="1.0" xmlns="http://www.w3.org/2000/svg"
 width="1024.000000pt" height="1024.000000pt" viewBox="0 0 1024.000000 1024.000000"
 preserveAspectRatio="xMidYMid meet">
<metadata>
Created by potrace 1.15, written by Peter Selinger 2001-2017
</metadata>
<g transform="translate(0.000000,1024.000000) scale(0.100000,-0.100000)"
fill="#000000" stroke="none">
<path d="M4770 4815 l0 -2395 350 0 350 0 0 2395 0 2395 -350 0 -350 0 0
-2395z"/>
<path d="M390 6103 c-140 -118 -255 -220 -254 -227 1 -7 71 -95 156 -197 336
-400 712 -915 928 -1274 154 -254 356 -619 460 -830 97 -198 338 -721 377
-817 8 -21 19 -38 23 -38 6 0 621 269 627 275 9 7 -254 585 -392 860 -223 447
-357 685 -628 1115 -79 125 -353 514 -487 690 -170 225 -529 660 -544 659 -6
0 -126 -97 -266 -216z"/>
<path d="M9381 6142 c-147 -335 -384 -808 -553 -1105 -356 -623 -683 -1104
-1161 -1705 -94 -118 -166 -217 -160 -220 5 -4 125 -99 267 -212 141 -113 260
-206 265 -208 8 -3 305 370 473 593 467 624 878 1287 1212 1955 146 293 356
745 356 768 0 6 -10 14 -22 18 -13 4 -106 45 -208 92 -310 141 -380 172 -393
172 -6 0 -41 -67 -76 -148z"/>
</g>
</svg>
