<?xml version="1.0" standalone="no"?>
<!DOCTYPE svg PUBLIC "-//W3C//DTD SVG 20010904//EN"
 "http://www.w3.org/TR/2001/REC-SVG-20010904/DTD/svg10.dtd">
<svg version="1.0" xmlns="http://www.w3.org/2000/svg"
 width="1024.000000pt" height="1024.000000pt" viewBox="0 0 1024.000000 1024.000000"
 preserveAspectRatio="xMidYMid meet">
<metadata>
Created by potrace 1.15, written by Peter Selinger 2001-2017
</metadata>
<g transform="translate(0.000000,1024.000000) scale(0.100000,-0.100000)"
fill="#000000" stroke="none">
<path d="M1900 8745 l0 -405 -815 0 -815 0 0 -350 0 -350 815 0 815 0 0 -820
0 -820 1435 0 1435 0 0 -2455 0 -2455 350 0 350 0 0 2455 0 2455 1433 2 1432
3 3 818 2 817 815 0 815 0 0 350 0 350 -815 0 -815 0 0 405 0 405 -350 0 -350
0 0 -405 0 -405 -1085 0 -1085 0 0 405 0 405 -350 0 -350 0 0 -405 0 -405
-1085 0 -1085 0 0 405 0 405 -350 0 -350 0 0 -405z m2870 -1575 l0 -470 -1085
0 -1085 0 0 470 0 470 1085 0 1085 0 0 -470z m2870 0 l0 -470 -1085 0 -1085 0
0 470 0 470 1085 0 1085 0 0 -470z"/>
</g>
</svg>
