<?xml version="1.0" standalone="no"?>
<!DOCTYPE svg PUBLIC "-//W3C//DTD SVG 20010904//EN"
 "http://www.w3.org/TR/2001/REC-SVG-20010904/DTD/svg10.dtd">
<svg version="1.0" xmlns="http://www.w3.org/2000/svg"
 width="1024.000000pt" height="1024.000000pt" viewBox="0 0 1024.000000 1024.000000"
 preserveAspectRatio="xMidYMid meet">
<metadata>
Created by potrace 1.15, written by Peter Selinger 2001-2017
</metadata>
<g transform="translate(0.000000,1024.000000) scale(0.100000,-0.100000)"
fill="#000000" stroke="none">
<path d="M2516 6659 c-165 -82 -301 -151 -303 -153 -2 -2 109 -231 247 -510
137 -278 250 -508 250 -511 0 -3 -549 -5 -1220 -5 l-1220 0 0 -1070 0 -1070
345 0 345 0 0 720 0 720 4160 0 4160 0 0 -720 0 -720 345 0 345 0 0 1070 0
1070 -1025 0 c-564 0 -1025 3 -1025 6 0 3 95 216 212 472 247 546 253 560 247
565 -2 2 -49 25 -104 49 -55 25 -185 85 -290 133 -104 48 -200 91 -211 95 -19
8 -25 2 -52 -58 -92 -202 -351 -772 -452 -997 l-118 -260 -699 -3 -700 -2 -25
57 c-14 32 -85 193 -158 358 -72 165 -183 415 -247 555 -63 140 -126 279 -139
308 l-23 53 -28 -14 c-15 -8 -156 -72 -313 -142 -157 -69 -286 -128 -288 -130
-2 -1 17 -47 41 -101 25 -55 101 -228 171 -386 69 -158 153 -346 186 -418 33
-72 60 -133 60 -135 0 -3 -337 -5 -749 -5 l-749 0 -257 518 c-141 284 -289
583 -327 665 -39 81 -76 147 -82 146 -6 0 -146 -68 -310 -150z"/>
</g>
</svg>
