<?xml version="1.0" standalone="no"?>
<!DOCTYPE svg PUBLIC "-//W3C//DTD SVG 20010904//EN"
 "http://www.w3.org/TR/2001/REC-SVG-20010904/DTD/svg10.dtd">
<svg version="1.0" xmlns="http://www.w3.org/2000/svg"
 width="1024.000000pt" height="1024.000000pt" viewBox="0 0 1024.000000 1024.000000"
 preserveAspectRatio="xMidYMid meet">
<metadata>
Created by potrace 1.15, written by Peter Selinger 2001-2017
</metadata>
<g transform="translate(0.000000,1024.000000) scale(0.100000,-0.100000)"
fill="#000000" stroke="none">
<path d="M2110 7575 l0 -1575 1330 0 1330 0 0 -675 0 -675 -1840 0 -1840 0 0
-350 0 -350 1840 0 1840 0 0 -880 0 -880 -2250 0 -2250 0 0 -345 0 -345 4850
0 4850 0 0 345 0 345 -2250 0 -2250 0 0 880 0 880 1840 0 1840 0 0 350 0 350
-1840 0 -1840 0 0 675 0 675 1330 0 1330 0 0 1575 0 1575 -3010 0 -3010 0 0
-1575z m5320 5 l0 -880 -2310 0 -2310 0 0 880 0 880 2310 0 2310 0 0 -880z"/>
</g>
</svg>
