<?xml version="1.0" standalone="no"?>
<!DOCTYPE svg PUBLIC "-//W3C//DTD SVG 20010904//EN"
 "http://www.w3.org/TR/2001/REC-SVG-20010904/DTD/svg10.dtd">
<svg version="1.0" xmlns="http://www.w3.org/2000/svg"
 width="1024.000000pt" height="1024.000000pt" viewBox="0 0 1024.000000 1024.000000"
 preserveAspectRatio="xMidYMid meet">
<metadata>
Created by potrace 1.15, written by Peter Selinger 2001-2017
</metadata>
<g transform="translate(0.000000,1024.000000) scale(0.100000,-0.100000)"
fill="#000000" stroke="none">
<path d="M5180 9460 l0 -510 -2045 0 -2045 0 0 -1212 c-1 -1249 -12 -2233 -30
-2628 -76 -1650 -310 -2975 -775 -4378 -58 -175 -105 -323 -105 -328 0 -9 647
-231 654 -223 5 6 187 559 235 714 218 709 410 1572 521 2344 118 830 172
1599 187 2694 l6 477 879 0 878 0 0 -715 0 -715 2195 0 2195 0 0 715 0 715
1020 0 1020 0 0 350 0 350 -1020 0 -1020 0 0 510 0 510 -350 0 -350 0 0 -510
0 -510 -1495 0 -1495 0 0 510 0 510 -350 0 -350 0 0 -510 0 -510 -880 0 -880
0 0 568 0 569 1178 6 c647 4 2490 7 4095 7 l2917 0 0 350 0 350 -2045 0 -2045
0 0 505 0 505 -350 0 -350 0 0 -510z m2050 -3420 l0 -370 -1495 0 -1495 0 0
370 0 370 1495 0 1495 0 0 -370z"/>
</g>
</svg>
