<?xml version="1.0" standalone="no"?>
<!DOCTYPE svg PUBLIC "-//W3C//DTD SVG 20010904//EN"
 "http://www.w3.org/TR/2001/REC-SVG-20010904/DTD/svg10.dtd">
<svg version="1.0" xmlns="http://www.w3.org/2000/svg"
 width="1024.000000pt" height="1024.000000pt" viewBox="0 0 1024.000000 1024.000000"
 preserveAspectRatio="xMidYMid meet">
<metadata>
Created by potrace 1.15, written by Peter Selinger 2001-2017
</metadata>
<g transform="translate(0.000000,1024.000000) scale(0.100000,-0.100000)"
fill="#000000" stroke="none">
<path d="M4770 9460 l0 -510 -1435 0 -1435 0 0 -350 0 -350 1435 0 1435 0 0
-470 0 -470 -1635 0 -1635 0 0 -345 0 -345 3620 0 3620 0 0 345 0 345 -1635 0
-1635 0 0 470 0 470 1433 2 1432 3 3 348 2 347 -1435 0 -1435 0 0 510 0 510
-350 0 -350 0 0 -510z"/>
<path d="M1907 5873 c-4 -3 -7 -530 -7 -1170 l0 -1163 1248 0 1247 0 -160
-158 c-626 -619 -1497 -1175 -2595 -1657 -135 -59 -247 -110 -249 -112 -6 -5
26 -83 124 -298 45 -99 96 -215 114 -258 19 -42 38 -77 43 -77 28 0 769 343
978 453 837 439 1434 852 2019 1396 l101 93 0 -1326 0 -1326 350 0 350 0 0
1198 1 1197 32 -40 c508 -631 1028 -1079 1716 -1479 308 -179 638 -337 1063
-507 136 -54 739 -262 743 -257 11 15 218 648 214 653 -4 3 -137 51 -295 106
-534 186 -909 348 -1285 555 l-138 77 143 151 c319 337 512 567 909 1087 l96
126 -142 110 c-78 60 -196 150 -261 199 l-120 89 95 5 94 5 3 1168 2 1167
-3213 0 c-1768 0 -3217 -3 -3220 -7z m5733 -1163 l0 -470 -2520 0 -2520 0 0
470 0 470 2520 0 2520 0 0 -470z m399 -1252 c-230 -304 -465 -597 -638 -793
-119 -134 -460 -485 -472 -485 -19 0 -259 210 -427 374 -153 149 -371 395
-489 551 -74 98 -282 400 -289 420 -5 13 138 15 1185 15 l1192 0 -62 -82z"/>
</g>
</svg>
